<?xml version="1.0" encoding="utf-8"?>
<svg id="master-artboard" viewBox="0 0 505 505" version="1.1" xmlns="http://www.w3.org/2000/svg" x="0px" y="0px" style="enable-background:new 0 0 336 235.2;">
	<g transform="matrix(1.1437854766845703, 0, 0, 1.1437854766845703, 123.03365970690311, 36.40449068940893)">
		<g class="" transform="matrix(1, 0, 0, 1, -142.98064358105157, -67.01579284667969)" style="touch-action: none;">
			<path d="M 74.5 36 C 53.237037131514455 36.00000000000001 36 53.237037131514455 36 74.5 L 36 437.5 C 36 458.76296286848554 53.237037131514455 476 74.5 476 L 437.5 476 C 458.76296286848554 476 476 458.76296286848554 476 437.5 L 476 74.5 C 476 53.237037131514455 458.76296286848554 36 437.5 36 L 74.5 36 Z" fill="#fff" fill-opacity="1" style="stroke: rgb(0, 0, 0); fill-opacity: 0; paint-order: stroke; fill: rgb(255, 255, 255);"/></g><path style="fill-opacity: 1; stroke: rgb(0, 0, 0); stroke-opacity: 1; stroke-width: 1; paint-order: fill;"/><path style="fill-opacity: 0; stroke: rgb(0, 0, 0); stroke-opacity: 1; stroke-width: 1; paint-order: stroke;"/><path style="fill-opacity: 0; stroke: rgb(0, 0, 0); stroke-opacity: 1; stroke-width: 1; paint-order: stroke;"/><path style="fill-opacity: 0; stroke: rgb(0, 0, 0); stroke-opacity: 1; stroke-width: 1; paint-order: stroke;"/></g><g transform="matrix(1.1294938016543166, 0, 0, 1.1294938016543166, -483.9299119485727, 144.06860171690585)"><g id="g-5" transform="matrix(1, 0, 0, 1, 0, 0)">
		</g>
	</g>
</svg>